<svg width="1098" height="1080" viewBox="0 0 1098 1080" fill="none" xmlns="http://www.w3.org/2000/svg">
<path opacity="0.2" fill-rule="evenodd" clip-rule="evenodd" d="M661.481 -62.5583C784.699 -25.0902 864.179 -234.765 992.131 -249.412C1164.37 -269.13 1376.58 -284.517 1495.11 -157.992C1606.99 -38.5818 1607.51 179.947 1528.77 323.392C1446.93 472.488 1231.31 472.945 1093.83 573.055C1021.89 625.442 964.04 691.772 918.148 768.031C816.209 937.421 858.294 1273.08 661.481 1291.49C474.97 1308.93 482.841 972.343 375.517 818.784C318.694 737.483 239.327 680.815 179.42 601.759C111.606 512.268 4.81488 435.584 0.119688 323.392C-4.57274 211.266 130.125 140.544 155.544 31.2373C195.921 -142.393 14.793 -460.822 190.041 -493.312C402.951 -532.783 454.307 -125.556 661.481 -62.5583Z" fill="#1769AE" fill-opacity="0.3"/>
</svg>
